<?xml version="1.0" standalone="no"?>
<!DOCTYPE svg PUBLIC "-//W3C//DTD SVG 1.1//EN"
"http://www.w3.org/Graphics/SVG/1.1/DTD/svg11.dtd">

<svg width="435" height="304" view_box="0 0 435 304"
xmlns="http://www.w3.org/2000/svg"
xmlns:link="http://www.w3.org/1999/xlink">\n\n<desc>Généré par Mocodo 2.3.7 le Fri, 10 Sep 2021 06:12:41</desc>

<rect id="frame" x="0" y="0" width="435" height="304" fill="#f5f5f5" stroke="none" stroke-width="0"/>

<!-- Association qualifier -->
<line x1="65" y1="161" x2="65" y2="253" stroke="#35978f" stroke-width="2"/>
<text x="70.0" y="220" fill="#8c510a" font-family="Verdana" font-size="12">0,N</text>
<line x1="191" y1="253" x2="65" y2="253" stroke="#35978f" stroke-width="2"/>
<text x="138" y="270.0" fill="#8c510a" font-family="Verdana" font-size="12">0,N</text>
<g id="association-qualifier">
	<path d="M 83 228 a 14 14 90 0 1 14 14 V 253 h -64 V 242 a 14 14 90 0 1 14 -14" fill="#80cdc1" stroke="#80cdc1" stroke-width="0"/>
	<path d="M 97 253.0 v 11 a 14 14 90 0 1 -14 14 H 47 a 14 14 90 0 1 -14 -14 V 253.0 H 64" fill="#c7eae5" stroke="#c7eae5" stroke-width="0"/>
	<rect x="33" y="228" width="64" height="50" fill="none" rx="14" stroke="#35978f" stroke-width="2"/>
	<line x1="33" y1="253" x2="97" y2="253" stroke="#35978f" stroke-width="1"/>
	<text x="40" y="245.7" fill="#000000" font-family="Verdana" font-size="12">qualifier</text>
</g>

<!-- Association agréger -->
<line x1="294" y1="161" x2="395" y2="161" stroke="#35978f" stroke-width="2"/>
<text x="332" y="178.0" fill="#8c510a" font-family="Verdana" font-size="12">0,N</text>
<line x1="395" y1="253" x2="395" y2="161" stroke="#35978f" stroke-width="2"/>
<text x="400.0" y="211" fill="#8c510a" font-family="Verdana" font-size="12">1,1</text>
<g id="association-agréger">
	<path d="M 412 136 a 14 14 90 0 1 14 14 V 161 h -62 V 150 a 14 14 90 0 1 14 -14" fill="#80cdc1" stroke="#80cdc1" stroke-width="0"/>
	<path d="M 426 161.0 v 11 a 14 14 90 0 1 -14 14 H 378 a 14 14 90 0 1 -14 -14 V 161.0 H 62" fill="#c7eae5" stroke="#c7eae5" stroke-width="0"/>
	<rect x="364" y="136" width="62" height="50" fill="none" rx="14" stroke="#35978f" stroke-width="2"/>
	<line x1="364" y1="161" x2="426" y2="161" stroke="#35978f" stroke-width="1"/>
	<text x="371" y="153.7" fill="#000000" font-family="Verdana" font-size="12">agréger</text>
</g>

<!-- Association solutionner -->
<line x1="294" y1="161" x2="294" y2="253" stroke="#35978f" stroke-width="2"/>
<text x="299.0" y="212" fill="#8c510a" font-family="Verdana" font-size="12">1,1</text>
<line x1="395" y1="253" x2="294" y2="253" stroke="#35978f" stroke-width="2"/>
<text x="341" y="270.0" fill="#8c510a" font-family="Verdana" font-size="12">0,1</text>
<g id="association-solutionner">
	<path d="M 321 228 a 14 14 90 0 1 14 14 V 253 h -82 V 242 a 14 14 90 0 1 14 -14" fill="#80cdc1" stroke="#80cdc1" stroke-width="0"/>
	<path d="M 335 253.0 v 11 a 14 14 90 0 1 -14 14 H 267 a 14 14 90 0 1 -14 -14 V 253.0 H 82" fill="#c7eae5" stroke="#c7eae5" stroke-width="0"/>
	<rect x="253" y="228" width="82" height="50" fill="none" rx="14" stroke="#35978f" stroke-width="2"/>
	<line x1="253" y1="253" x2="335" y2="253" stroke="#35978f" stroke-width="1"/>
	<text x="260" y="245.7" fill="#000000" font-family="Verdana" font-size="12">solutionner</text>
</g>

<!-- Association grader -->
<line x1="294" y1="161" x2="294" y2="60" stroke="#35978f" stroke-width="2"/>
<text x="299.0" y="119" fill="#8c510a" font-family="Verdana" font-size="12">0,1</text>
<line x1="395" y1="60" x2="294" y2="60" stroke="#35978f" stroke-width="2"/>
<text x="347" y="77.0" fill="#8c510a" font-family="Verdana" font-size="12">0,N</text>
<g id="association-grader">
	<path d="M 308 35 a 14 14 90 0 1 14 14 V 60 h -56 V 49 a 14 14 90 0 1 14 -14" fill="#80cdc1" stroke="#80cdc1" stroke-width="0"/>
	<path d="M 322 60.0 v 11 a 14 14 90 0 1 -14 14 H 280 a 14 14 90 0 1 -14 -14 V 60.0 H 56" fill="#c7eae5" stroke="#c7eae5" stroke-width="0"/>
	<rect x="266" y="35" width="56" height="50" fill="none" rx="14" stroke="#35978f" stroke-width="2"/>
	<line x1="266" y1="60" x2="322" y2="60" stroke="#35978f" stroke-width="1"/>
	<text x="273" y="52.7" fill="#000000" font-family="Verdana" font-size="12">grader</text>
</g>

<!-- Association constituer -->
<line x1="65" y1="161" x2="191" y2="161" stroke="#35978f" stroke-width="2"/>
<text x="126" y="178.0" fill="#8c510a" font-family="Verdana" font-size="12">0,N</text>
<line x1="294" y1="161" x2="191" y2="161" stroke="#35978f" stroke-width="2"/>
<text x="235" y="178.0" fill="#8c510a" font-family="Verdana" font-size="12">1,1</text>
<g id="association-constituer">
	<path d="M 215 136 a 14 14 90 0 1 14 14 V 161 h -76 V 150 a 14 14 90 0 1 14 -14" fill="#80cdc1" stroke="#80cdc1" stroke-width="0"/>
	<path d="M 229 161.0 v 11 a 14 14 90 0 1 -14 14 H 167 a 14 14 90 0 1 -14 -14 V 161.0 H 76" fill="#c7eae5" stroke="#c7eae5" stroke-width="0"/>
	<rect x="153" y="136" width="76" height="50" fill="none" rx="14" stroke="#35978f" stroke-width="2"/>
	<line x1="153" y1="161" x2="229" y2="161" stroke="#35978f" stroke-width="1"/>
	<text x="160" y="153.7" fill="#000000" font-family="Verdana" font-size="12">constituer</text>
</g>

<!-- Association écrire -->
<line x1="191" y1="60" x2="65" y2="60" stroke="#35978f" stroke-width="2"/>
<text x="130" y="77.0" fill="#8c510a" font-family="Verdana" font-size="12">0,N</text>
<line x1="65" y1="161" x2="65" y2="60" stroke="#35978f" stroke-width="2"/>
<text x="70.0" y="111" fill="#8c510a" font-family="Verdana" font-size="12">1,1</text>
<g id="association-écrire">
	<path d="M 76 35 a 14 14 90 0 1 14 14 V 60 h -50 V 49 a 14 14 90 0 1 14 -14" fill="#80cdc1" stroke="#80cdc1" stroke-width="0"/>
	<path d="M 90 60.0 v 11 a 14 14 90 0 1 -14 14 H 54 a 14 14 90 0 1 -14 -14 V 60.0 H 50" fill="#c7eae5" stroke="#c7eae5" stroke-width="0"/>
	<rect x="40" y="35" width="50" height="50" fill="none" rx="14" stroke="#35978f" stroke-width="2"/>
	<line x1="40" y1="60" x2="90" y2="60" stroke="#35978f" stroke-width="1"/>
	<text x="47" y="52.7" fill="#000000" font-family="Verdana" font-size="12">écrire</text>
</g>

<!-- Entity Level -->
<g id="entity-Level">
	<g id="frame-Level">
		<rect x="374" y="26" width="42" height="25" fill="#dfc27d" stroke="#dfc27d" stroke-width="0"/>
		<rect x="374" y="51.0" width="42" height="43" fill="#f6e8c3" stroke="#f6e8c3" stroke-width="0"/>
		<rect x="374" y="26" width="42" height="68" fill="none" stroke="#bf812d" stroke-width="2"/>
		<line x1="374" y1="51" x2="416" y2="51" stroke="#bf812d" stroke-width="1"/>
	</g>
	<text x="379" y="43.7" fill="#000000" font-family="Verdana" font-size="12">Level</text>
	<text x="379" y="68.8" fill="#000000" font-family="Verdana" font-size="12">title</text>
	<line x1="379" y1="71" x2="403" y2="71" stroke="#000000" stroke-width="1"/>
	<text x="379" y="85.8" fill="#000000" font-family="Verdana" font-size="12">color</text>
</g>

<!-- Entity Question -->
<g id="entity-Question">
	<g id="frame-Question">
		<rect x="261" y="127" width="66" height="25" fill="#dfc27d" stroke="#dfc27d" stroke-width="0"/>
		<rect x="261" y="152.0" width="66" height="43" fill="#f6e8c3" stroke="#f6e8c3" stroke-width="0"/>
		<rect x="261" y="127" width="66" height="68" fill="none" stroke="#bf812d" stroke-width="2"/>
		<line x1="261" y1="152" x2="327" y2="152" stroke="#bf812d" stroke-width="1"/>
	</g>
	<text x="267" y="144.7" fill="#000000" font-family="Verdana" font-size="12">Question</text>
	<text x="266" y="169.8" fill="#000000" font-family="Verdana" font-size="12">question</text>
	<line x1="266" y1="172" x2="318" y2="172" stroke="#000000" stroke-width="1"/>
	<text x="266" y="186.8" fill="#000000" font-family="Verdana" font-size="12">anecdote</text>
</g>

<!-- Entity Quiz -->
<g id="entity-Quiz">
	<g id="frame-Quiz">
		<rect x="9" y="119" width="112" height="25" fill="#dfc27d" stroke="#dfc27d" stroke-width="0"/>
		<rect x="9" y="144.0" width="112" height="59" fill="#f6e8c3" stroke="#f6e8c3" stroke-width="0"/>
		<rect x="9" y="119" width="112" height="84" fill="none" stroke="#bf812d" stroke-width="2"/>
		<line x1="9" y1="144" x2="121" y2="144" stroke="#bf812d" stroke-width="1"/>
	</g>
	<text x="51" y="136.7" fill="#000000" font-family="Verdana" font-size="12">Quiz</text>
	<text x="14" y="161.8" fill="#000000" font-family="Verdana" font-size="12">title</text>
	<line x1="14" y1="164" x2="38" y2="164" stroke="#000000" stroke-width="1"/>
	<text x="14" y="178.8" fill="#000000" font-family="Verdana" font-size="12">description</text>
	<text x="14" y="195.8" fill="#000000" font-family="Verdana" font-size="12">date_publication</text>
</g>

<!-- Entity Theme -->
<g id="entity-Theme">
	<g id="frame-Theme">
		<rect x="165" y="211" width="52" height="25" fill="#dfc27d" stroke="#dfc27d" stroke-width="0"/>
		<rect x="165" y="236.0" width="52" height="59" fill="#f6e8c3" stroke="#f6e8c3" stroke-width="0"/>
		<rect x="165" y="211" width="52" height="84" fill="none" stroke="#bf812d" stroke-width="2"/>
		<line x1="165" y1="236" x2="217" y2="236" stroke="#bf812d" stroke-width="1"/>
	</g>
	<text x="170" y="228.7" fill="#000000" font-family="Verdana" font-size="12">Theme</text>
	<text x="170" y="253.8" fill="#000000" font-family="Verdana" font-size="12">title</text>
	<line x1="170" y1="256" x2="194" y2="256" stroke="#000000" stroke-width="1"/>
	<text x="170" y="270.8" fill="#000000" font-family="Verdana" font-size="12">image</text>
	<text x="170" y="287.8" fill="#000000" font-family="Verdana" font-size="12">color</text>
</g>

<!-- Entity User -->
<g id="entity-User">
	<g id="frame-User">
		<rect x="157" y="9" width="68" height="25" fill="#dfc27d" stroke="#dfc27d" stroke-width="0"/>
		<rect x="157" y="34.0" width="68" height="77" fill="#f6e8c3" stroke="#f6e8c3" stroke-width="0"/>
		<rect x="157" y="9" width="68" height="102" fill="none" stroke="#bf812d" stroke-width="2"/>
		<line x1="157" y1="34" x2="225" y2="34" stroke="#bf812d" stroke-width="1"/>
	</g>
	<text x="177" y="26.7" fill="#000000" font-family="Verdana" font-size="12">User</text>
	<text x="162" y="51.7" fill="#000000" font-family="Verdana" font-size="12">firstname</text>
	<line x1="162" y1="54" x2="220" y2="54" stroke="#000000" stroke-width="1"/>
	<text x="162" y="68.8" fill="#000000" font-family="Verdana" font-size="12">lastname</text>
	<text x="162" y="85.8" fill="#000000" font-family="Verdana" font-size="12">email</text>
	<text x="162" y="102.8" fill="#000000" font-family="Verdana" font-size="12">password</text>
</g>

<!-- Entity Answer -->
<g id="entity-Answer">
	<g id="frame-Answer">
		<rect x="367" y="219" width="56" height="25" fill="#dfc27d" stroke="#dfc27d" stroke-width="0"/>
		<rect x="367" y="244.0" width="56" height="43" fill="#f6e8c3" stroke="#f6e8c3" stroke-width="0"/>
		<rect x="367" y="219" width="56" height="68" fill="none" stroke="#bf812d" stroke-width="2"/>
		<line x1="367" y1="244" x2="423" y2="244" stroke="#bf812d" stroke-width="1"/>
	</g>
	<text x="372" y="236.7" fill="#000000" font-family="Verdana" font-size="12">Answer</text>
	<text x="372" y="261.8" fill="#000000" font-family="Verdana" font-size="12">answer</text>
	<line x1="372" y1="264" x2="416" y2="264" stroke="#000000" stroke-width="1"/>
</g>
</svg>